<svg xmlns="http://www.w3.org/2000/svg" height="512" width="512" xml:space="preserve"><path style="fill:#fff" d="M259.345 110.181a24.68 24.68 0 0 1-.112-2.369c0-11.578 7.584-20.997 16.903-20.997 9.537 0 17.007 9.223 17.007 20.997a25.38 25.38 0 0 1-1.148 7.61c2.795-4.442 4.412-10.032 4.412-15.892 0-14.079-9-25.535-20.06-25.535-11.063 0-20.06 11.455-20.06 25.535 0 3.461.542 6.849 1.615 10.099l1.443.552zM209.407 87.924a11.178 11.178 0 0 1 1.707-.134c7.418 0 14.069 7.281 15.812 17.311.175 1.1.285 2.196.334 3.277.482-.245.972-.475 1.471-.688.245-1.739.364-3.369.364-5.006 0-12.986-6.879-23.957-15.019-23.957-6.933 0-12.775 7.636-14.44 17.95 1.896-4.704 5.357-8.02 9.771-8.753zM349.093 349.859c1.865-7.908 5.575-28.1 2.063-52.525-4.438-30.87-47.875-126.994-55.35-137.727-4.36.609-15.946 7.304-25.342 12.733-10.896 6.295-22.166 12.807-29.829 15.019-1.6.453-3.273.677-4.997.677-11.199 0-23.32-9.468-31.135-16.926-1.365 14.472-9.078 32.835-17.423 42.273-5.271 6.045-9.982 19.854-14.538 33.21-4.22 12.367-8.583 25.157-13.925 33.592-10.809 16.842-17.009 49.555-9.144 68.159 3.806 9.018 17.62 19.668 29.807 29.062 14.905 11.491 27.776 21.413 29.196 31.419 1.657 11.831-4.635 18.388-10.927 21.497l15.961 18.263c2.466.374 8.405 1.091 17.712 1.091 10.886 0 22.97-.952 35.907-2.834 31.763-4.705 53.886-30.88 58.261-36.438.023-7.363.248-40.123 2.396-50.366.834-3.945 4.037-10.547 16.136-10.547a37.962 37.962 0 0 1 5.171.368z" transform="matrix(.60937 0 0 .60937 100 100)"/><path style="fill:#e69629" d="M210.488 147.081c.623 2.422 6.136 8.617 14.71 14.242 1.217.781 2.359 1.558 3.431 2.286 4.756 3.232 6.871 4.559 10.29 4.098 5.034-.66 23.579-11.904 31.499-16.706l1.971-1.194c2.949-1.796 5.306-3.023 7.2-4.009 3.75-1.951 4.089-2.266 4.249-2.978-.425-1.103-3.926-4.056-10.641-6.364-2.134-.764-5.162-1.974-8.67-3.374-7.589-3.03-17.984-7.176-22.197-7.922a2.815 2.815 0 0 0-.539-.045c-3.586 0-10.831 4.499-18.031 11.194-3.549 3.204-10.477 8.611-13.272 10.772zM147.149 395.532c-3.119-5.222-5.815-9.735-7.27-11.984-5.738-8.931-15.696-18.907-20.442-18.907-.416 0-.635.097-.777.181-2.533 1.442-4.662 5.837-6.723 10.084-2.847 5.875-6.075 12.535-12.036 16.146-4.41 2.676-11.152 4.138-17.668 5.555-4.637 1.007-15.493 3.362-16.003 5.562-.703 2.968-.049 6.033.781 9.913.977 4.578 2.196 10.274 1.158 17.267-.732 4.386-2.063 8.575-3.354 12.627-1.793 5.637-3.826 12.03-2.073 13.995 2.162 1.909 15.207 4.019 24.731 5.562 11.972 1.937 24.351 3.942 31.932 7.118l2.009.846c13.579 5.706 38.854 16.329 51.622 16.329 1.162 0 2.152-.094 2.951-.274 2.202-1.482 11.531-8.184 13.284-16.424 2.394-10.619-7.338-23.005-13.349-29.444-6.672-7.165-19.445-28.544-28.773-44.152zM435.761 420.974l-1.556-.819c-10.688-5.65-16.307-20.984-15.563-32.542.139-2.129-.126-3.78-.557-5.045-1.974 3.247-4.793 7.348-8.143 10.697-5.691 5.692-19.584 11.833-32.105 11.833-4.67 0-8.927-.823-12.652-2.448-12.498-5.451-14.202-21.081-14.234-28.917a3.267 3.267 0 0 0-.505.183c-.764 2.701-.024 11.806.475 17.935.267 3.279.542 6.669.705 9.78.708 13.708-3.658 36.958-7.447 54.049-3.597 16.732 3.097 28.464 11.224 30.997.73.232 1.551.346 2.453.346 7.487 0 19.886-7.749 30.848-19.285 7.788-8.189 25.122-17.04 40.416-24.85 8.622-4.402 17.537-8.956 20.071-11.271.564-.525.648-.819.65-.821-.16-2.514-10.273-7.824-14.08-9.822z" transform="matrix(.60937 0 0 .60937 100 100)"/><path d="M380.964 350.51c-9.15-3.747-13.063-8.72-12.685-16.14.39-8.66-4.523-15.003-6.856-17.51 1.409-5.384 5.528-24.012.004-40.193-5.937-17.318-24.064-43.768-42.768-69.768-7.657-10.678-8.019-22.285-8.437-35.725-.401-12.818-.853-27.348-8.002-43.501C294.448 110.085 278.851 100 259.43 100c-11.555 0-23.415 3.611-32.541 9.907-18.69 12.898-16.22 41.02-14.585 59.628.225 2.548.435 4.955.558 7.01 1.088 18.225.098 27.831-1.197 30.75-.838 1.908-4.962 7.338-9.327 13.087-4.514 5.947-9.632 12.685-13.827 18.965-5.006 7.557-9.046 19.107-12.954 30.276-2.859 8.172-5.56 15.892-8.188 20.508a27.925 27.925 0 0 0-2.708 20.976c-1.887 1.31-4.612 3.892-6.913 8.754-2.78 5.933-8.422 9.12-20.153 11.377-5.39 1.103-9.108 3.37-11.052 6.737-2.829 4.901-1.288 11.059.118 15.268 2.076 6.186.782 10.102-1.57 17.213-.543 1.64-1.158 3.498-1.78 5.546-.982 3.235-.628 6.174 1.049 8.74 4.43 6.771 17.358 9.16 30.667 10.732 7.946.944 16.643 4.121 25.055 7.196 8.242 3.011 16.764 6.126 24.51 7.072a27.9 27.9 0 0 0 3.469.221c11.696 0 16.98-7.76 18.656-10.948 4.201-.858 18.692-3.603 33.626-3.972 14.91-.425 29.337 2.52 33.424 3.434 1.285 2.46 4.672 8.076 10.071 10.97 2.968 1.623 7.098 2.553 11.327 2.553h.002c4.517 0 13.11-1.068 19.913-8.225 6.784-7.188 23.734-16.367 36.112-23.068a753.084 753.084 0 0 0 7.611-4.157c6.953-3.855 10.747-9.362 10.41-15.11-.284-4.776-3.444-8.963-8.248-10.93zM268.397 145.09c6.74 0 12.224 6.981 12.224 15.561 0 3.57-.985 6.977-2.689 9.684.454-1.446.7-3.013.7-4.637 0-7.175-4.552-12.795-10.364-12.795-5.68 0-10.3 5.74-10.3 12.795 0 .482.024.963.068 1.444l-.88-.337a19.566 19.566 0 0 1-.984-6.154c0-8.58 5.483-15.56 12.225-15.56zm-20.729 31.182c2.568.453 8.9 2.98 13.527 4.827 2.137.853 3.984 1.59 5.283 2.056 4.092 1.407 6.226 3.206 6.484 3.878-.097.435-.304.626-2.589 1.815-1.154.6-2.59 1.347-4.387 2.443l-1.202.728c-4.826 2.926-16.127 9.779-19.194 10.18-2.084.28-3.373-.53-6.27-2.497a90.24 90.24 0 0 0-2.091-1.393c-5.225-3.43-8.585-7.203-8.964-8.68 1.703-1.315 5.925-4.61 8.086-6.563 4.388-4.08 8.803-6.821 10.988-6.821.116-.002.22.006.33.027zm-17.218-28.3c4.961 0 9.152 6.685 9.152 14.6 0 .997-.072 1.99-.222 3.05-.304.13-.602.27-.896.419-.03-.66-.098-1.327-.204-1.997-1.061-6.112-5.115-10.549-9.635-10.549-.335 0-.67.026-1.04.082-2.69.448-4.799 2.467-5.955 5.332 1.016-6.284 4.576-10.937 8.8-10.937zm-15.114 237.902c-1.068 5.022-6.753 9.105-8.095 10.009-.487.11-1.09.167-1.798.167-7.78 0-23.182-6.474-31.457-9.95l-1.224-.516c-4.621-1.937-12.164-3.157-19.459-4.338-5.804-.94-13.752-2.226-15.07-3.39-1.068-1.197.17-5.092 1.263-8.528.787-2.469 1.6-5.021 2.044-7.694.631-4.261-.11-7.734-.706-10.522-.505-2.365-.904-4.232-.476-6.04.311-1.34 6.927-2.776 9.752-3.39 3.972-.864 8.08-1.755 10.767-3.385 3.632-2.2 5.6-6.258 7.334-9.84 1.256-2.587 2.553-5.265 4.097-6.144.087-.052.22-.11.473-.11 2.892 0 8.96 6.078 12.457 11.521.887 1.37 2.53 4.12 4.43 7.303 5.685 9.511 13.469 22.539 17.534 26.904 3.663 3.925 9.593 11.472 8.134 17.943zm84.408-66.477c-1.307 6.242-1.445 26.205-1.46 30.692-2.666 3.387-16.147 19.336-35.503 22.204-7.884 1.146-15.245 1.727-21.88 1.727-5.672 0-9.29-.438-10.794-.665l-9.726-11.129c3.834-1.894 7.669-5.89 6.659-13.1-.865-6.096-8.709-12.143-17.791-19.145-7.427-5.725-15.845-12.213-18.164-17.71-4.793-11.336-1.015-31.27 5.572-41.534 3.255-5.14 5.914-12.934 8.486-20.47 2.776-8.14 5.647-16.555 8.859-20.238 5.085-5.75 9.784-16.94 10.617-25.76 4.761 4.545 12.148 10.315 18.973 10.315 1.05 0 2.07-.137 3.045-.413 4.669-1.348 11.536-5.316 18.177-9.152 5.725-3.308 12.786-7.388 15.442-7.76 4.556 6.542 31.025 65.117 33.73 83.928 2.14 14.884-.121 27.188-1.258 32.007a23.424 23.424 0 0 0-3.15-.226c-7.374 0-9.326 4.025-9.834 6.43zm73.982 43.621c-1.543 1.411-6.976 4.186-12.23 6.869-9.32 4.758-19.885 10.152-24.629 15.143-6.68 7.03-14.235 11.751-18.798 11.751-.549 0-1.05-.07-1.495-.21-4.952-1.544-9.031-8.694-6.84-18.89 2.31-10.415 4.97-24.582 4.539-32.935-.1-1.897-.267-3.962-.43-5.96-.304-3.734-.755-9.282-.29-10.929.093-.043.195-.08.309-.112.02 4.776 1.056 14.3 8.673 17.622 2.27.99 4.864 1.491 7.71 1.491 7.63 0 16.096-3.742 19.564-7.21 2.042-2.041 3.76-4.54 4.962-6.519.263.77.425 1.777.34 3.074-.454 7.043 2.97 16.387 9.483 19.83l.949.5c2.32 1.216 8.482 4.452 8.581 5.986-.003 0-.054.18-.398.5z"/></svg>